<svg width="1600" height="420" viewBox="0 0 1600 420" fill="none" xmlns="http://www.w3.org/2000/svg">
  <defs>
    <linearGradient id="skyFade" x1="800" y1="0" x2="800" y2="420" gradientUnits="userSpaceOnUse">
      <stop offset="0" stop-color="#FFFFFF" stop-opacity="0"/>
      <stop offset="0.45" stop-color="#F5F7FB" stop-opacity="0.16"/>
      <stop offset="1" stop-color="#D8D2C9" stop-opacity="0.78"/>
    </linearGradient>
    <linearGradient id="mistA" x1="0" y1="252" x2="0" y2="420" gradientUnits="userSpaceOnUse">
      <stop stop-color="#EEE8DF" stop-opacity="0.1"/>
      <stop offset="1" stop-color="#D4C8BA" stop-opacity="0.48"/>
    </linearGradient>
    <linearGradient id="mistB" x1="0" y1="246" x2="0" y2="420" gradientUnits="userSpaceOnUse">
      <stop stop-color="#E5DDD3" stop-opacity="0.07"/>
      <stop offset="1" stop-color="#C0B1A0" stop-opacity="0.36"/>
    </linearGradient>
    <linearGradient id="mistC" x1="0" y1="232" x2="0" y2="420" gradientUnits="userSpaceOnUse">
      <stop stop-color="#D5CEC5" stop-opacity="0.05"/>
      <stop offset="1" stop-color="#AA9B8D" stop-opacity="0.22"/>
    </linearGradient>
    <filter id="softBlur" x="-80" y="-80" width="1760" height="580" filterUnits="userSpaceOnUse" color-interpolation-filters="sRGB">
      <feGaussianBlur stdDeviation="30"/>
    </filter>
  </defs>

  <rect width="1600" height="420" fill="url(#skyFade)"/>

  <g filter="url(#softBlur)">
    <path d="M-90 330C72 298 191 284 340 292C498 300 623 338 766 338C913 338 1008 296 1162 294C1323 292 1442 324 1690 316V500H-90V330Z" fill="url(#mistA)" fill-opacity="1"/>
    <path d="M-110 354C20 340 142 320 270 324C430 330 540 358 690 360C860 362 972 332 1124 330C1278 328 1394 344 1710 344V520H-110V354Z" fill="url(#mistB)" fill-opacity="1"/>
    <path d="M-80 384C86 378 218 356 374 360C542 364 666 388 818 390C970 392 1088 366 1242 364C1388 362 1498 374 1680 374V540H-80V384Z" fill="url(#mistC)" fill-opacity="1"/>
    <path d="M-100 286C64 274 198 260 352 266C544 274 672 300 822 302C984 304 1096 276 1244 272C1406 268 1508 284 1700 278V420H-100V286Z" fill="#F2EEE7" fill-opacity="0.34"/>
  </g>

  <ellipse cx="330" cy="286" rx="190" ry="42" fill="#F4EEE6" fill-opacity="0.26"/>
  <ellipse cx="1218" cy="274" rx="164" ry="36" fill="#EEE7DD" fill-opacity="0.2"/>
  <ellipse cx="798" cy="318" rx="420" ry="56" fill="#F6F2EC" fill-opacity="0.24"/>
</svg>
